<svg xmlns="http://www.w3.org/2000/svg" width="500" height="500" viewBox="0 0 500 500" version="1.1"><path d="M 379.720 71.332 C 378.606 74.165, 378.788 75.612, 380.094 74.306 C 380.695 73.705, 381.020 72.377, 380.814 71.356 C 380.454 69.566, 380.415 69.565, 379.720 71.332 M 147.635 109.583 C 146.059 110.969, 144.966 112.300, 145.208 112.541 C 145.449 112.782, 146.935 111.634, 148.510 109.990 C 151.991 106.357, 151.541 106.148, 147.635 109.583 M 183.586 123.148 C 184.639 124.604, 186.968 127.600, 188.762 129.806 L 192.023 133.817 185.406 141.159 C 181.766 145.196, 176.797 150.412, 174.365 152.750 C 171.932 155.088, 170.348 157, 170.844 157 C 172.008 157, 192 136.266, 192 135.059 C 192 134.557, 192.693 134.001, 193.539 133.823 C 194.581 133.604, 192.912 131.399, 188.376 127 C 184.689 123.425, 182.534 121.691, 183.586 123.148 M 388.208 127.142 C 386.398 128.301, 385.136 129.470, 385.405 129.739 C 385.900 130.233, 393 126.194, 393 125.418 C 393 124.530, 391.371 125.116, 388.208 127.142 M 147.500 129.735 C 148.865 131.091, 157.148 133.018, 161.193 132.921 C 163.741 132.859, 163.123 132.538, 158.500 131.518 C 155.200 130.791, 151.150 129.869, 149.500 129.469 C 147.512 128.987, 146.837 129.077, 147.500 129.735 M 351.211 135.750 C 345.594 144.110, 345.221 144.821, 347.352 143.091 C 348.887 141.845, 349.281 141.961, 350.743 144.091 C 353.328 147.854, 364.278 159.078, 366.500 160.242 C 367.600 160.819, 364.337 156.970, 359.250 151.690 C 350.291 142.392, 349.064 140.459, 350.840 138.450 C 352.375 136.714, 356.172 130, 355.619 130 C 355.319 130, 353.336 132.588, 351.211 135.750 M 379 132 C 377.075 133.054, 376.052 133.935, 376.726 133.958 C 377.400 133.981, 379.425 133.102, 381.226 132.004 C 385.395 129.462, 383.641 129.459, 379 132 M 165.355 144.500 C 165.352 149.450, 165.521 151.601, 165.731 149.280 C 165.940 146.959, 165.943 142.909, 165.736 140.280 C 165.530 137.651, 165.358 139.550, 165.355 144.500 M 220.150 159.250 C 219.516 163.787, 218.998 170.712, 218.999 174.638 C 219 182.488, 215.978 194.388, 210.861 206.680 C 207.219 215.427, 198.911 229.530, 195.355 233 L 192.793 235.500 193.333 220.500 C 193.886 205.143, 196.070 192.986, 201.039 177.606 C 202.235 173.906, 203.011 170.678, 202.766 170.432 C 202.102 169.769, 195.328 191.356, 193.488 200 C 187.406 228.573, 193.281 274.212, 205.836 295.925 L 208.395 300.350 204.138 297.957 C 195.262 292.969, 176.979 272.038, 170.134 259.029 C 168.534 255.988, 166.231 250.350, 165.017 246.500 C 163.803 242.650, 162.196 237.925, 161.446 236 C 160.695 234.075, 159.580 227.475, 158.968 221.333 L 157.855 210.165 161.038 202.833 C 162.788 198.800, 165.239 194.375, 166.485 193 C 171.681 187.266, 176 180.696, 176 178.527 C 176 177.111, 174.583 174.963, 172.366 173.016 C 169.008 170.068, 168.341 169.870, 163.616 170.417 C 160.802 170.742, 157.075 171.119, 155.333 171.254 C 153.592 171.389, 152.325 171.659, 152.519 171.853 C 152.714 172.047, 152.470 173.263, 151.979 174.555 C 151.265 176.432, 151.381 176.791, 152.554 176.341 C 153.622 175.931, 153.866 176.286, 153.448 177.639 C 153.131 178.662, 153.557 178.327, 154.393 176.893 C 158.134 170.481, 166.641 168.928, 171.313 173.805 C 175.140 177.800, 174.728 180.646, 169.398 187.007 C 166.867 190.028, 163.326 195.659, 161.529 199.519 C 156.707 209.876, 154.984 210.814, 152.979 204.172 C 152.231 201.695, 152.166 201.668, 152.086 203.795 C 152.039 205.058, 153.081 207.172, 154.403 208.494 C 156.496 210.587, 156.888 212.157, 157.448 220.698 L 158.091 230.500 155.207 227.231 L 152.323 223.962 148.524 226.981 C 146.434 228.641, 144.413 230, 144.032 230 C 143.651 230, 143.872 227.412, 144.523 224.250 C 145.175 221.088, 146.013 215.800, 146.385 212.500 L 147.062 206.500 143.271 213.500 C 141.185 217.350, 137.918 222.750, 136.009 225.500 L 132.539 230.500 131.838 225.652 C 131.453 222.986, 130.871 220.538, 130.546 220.212 C 130.220 219.887, 127.601 219.737, 124.727 219.880 C 119.845 220.123, 119.632 220.038, 121.500 218.602 C 123.617 216.974, 122.476 216.412, 120.104 217.914 C 119.309 218.418, 118.983 219.514, 119.347 220.461 C 119.869 221.821, 120.807 222.002, 124.493 221.449 C 126.972 221.077, 129 221.048, 129 221.384 C 129 221.720, 127.442 224.164, 125.537 226.815 C 121.861 231.932, 113.897 239.239, 105.250 245.429 C 96.702 251.548, 98.571 253.518, 109.929 250.360 C 118.373 248.012, 119.409 248.665, 118.600 255.823 C 118.239 259.007, 118.241 261.908, 118.604 262.270 C 119.989 263.656, 123.084 260.718, 127.068 254.233 C 135.982 239.725, 138 236.619, 138 237.406 C 138 238.881, 130.991 256.975, 128.271 262.519 C 126.808 265.503, 125.885 268.218, 126.220 268.553 C 127.146 269.479, 130.803 267.223, 135.716 262.694 C 139.291 259.399, 140.319 258.891, 141.056 260.057 C 141.774 261.191, 141.973 261.045, 141.985 259.372 C 141.993 258.202, 142.709 256.656, 143.576 255.937 C 145.390 254.432, 145.096 254.103, 150.571 263.771 C 152.524 267.221, 154.544 269.782, 155.061 269.462 C 155.577 269.143, 156.002 265.871, 156.005 262.191 C 156.007 258.511, 156.300 250.445, 156.656 244.267 C 157.400 231.359, 158.368 231.222, 162.096 243.500 C 164.884 252.685, 169.080 261.859, 173.186 267.748 C 178.631 275.558, 187.475 286.173, 192.973 291.500 C 198.571 296.922, 202.089 303.478, 203.867 311.799 C 205.096 317.547, 205.406 330.261, 204.343 331.324 C 203.982 331.685, 202.697 329.546, 201.488 326.571 C 198.195 318.470, 190 307.932, 190 311.800 C 190 312.240, 190.563 313.205, 191.250 313.944 C 191.938 314.683, 189.645 313.761, 186.155 311.894 C 182.427 309.900, 176.525 305.258, 171.848 300.640 C 167.469 296.318, 163.700 292.967, 163.472 293.194 C 162.782 293.884, 170.360 302.553, 175.587 307.053 C 181.984 312.561, 181.967 312.527, 181.985 319.309 C 182 325.213, 180.720 326.309, 179.695 321.271 C 178.740 316.577, 173.492 309.838, 164.690 302 C 155.845 294.125, 149.560 285.727, 146.523 277.728 C 145.527 275.103, 144.535 273.132, 144.319 273.348 C 143.673 273.994, 147.774 283.682, 150.566 288.105 C 151.998 290.373, 157.518 296.697, 162.834 302.160 C 172.804 312.404, 177.258 318.749, 179.046 325.250 C 180.153 329.276, 183.114 330.406, 184.775 327.437 C 185.569 326.019, 185.771 326.019, 186.948 327.437 C 188.984 329.890, 190.844 329.275, 191.187 326.036 L 191.500 323.072 196.621 326.514 C 200.440 329.081, 201.902 330.761, 202.374 333.120 C 202.722 334.861, 203.680 336.783, 204.502 337.392 C 205.324 338.002, 207.272 340.975, 208.830 344 C 212.546 351.212, 214.575 351.305, 214.282 344.250 C 214.090 339.629, 214.299 339, 216.024 339 C 217.101 339, 218.549 339.924, 219.242 341.052 C 221.274 344.367, 230.702 351, 233.380 351 C 236.185 351, 237.789 354.610, 238.045 361.500 C 238.364 370.075, 238.216 370.465, 233.500 373.446 C 228.973 376.307, 227.333 377.963, 230.934 376.035 C 233.459 374.684, 234.054 374.729, 233.750 376.250 C 233.613 376.938, 234.175 377.500, 235 377.500 C 235.870 377.500, 236.500 376.593, 236.500 375.340 C 236.500 374.153, 236.892 372.803, 237.370 372.340 C 237.860 371.867, 238.061 373.107, 237.829 375.180 C 237.603 377.204, 237.765 378.645, 238.188 378.384 C 238.612 378.122, 239.920 378.422, 241.095 379.051 C 242.807 379.967, 243.134 379.926, 242.741 378.847 C 242.471 378.106, 241.744 377.613, 241.125 377.750 C 240.506 377.888, 240 377.339, 240 376.531 C 240 375.637, 240.586 375.288, 241.500 375.638 C 242.325 375.955, 243 376.642, 243 377.166 C 243 377.690, 243.508 377.804, 244.130 377.420 C 244.812 376.998, 245.078 377.265, 244.802 378.094 C 244.135 380.096, 248.127 381.786, 252.079 381.175 C 255.360 380.667, 255.398 380.614, 253 379.877 C 250.611 379.142, 250.630 379.116, 253.423 379.304 C 255.673 379.455, 256.382 380.017, 256.506 381.750 C 256.711 384.639, 257.963 385.933, 258.118 383.417 C 258.184 382.362, 258.184 381.163, 258.118 380.750 C 258.053 380.337, 258.450 380, 259 380 C 259.550 380, 260 380.450, 260 381 C 260 381.550, 260.477 382, 261.059 382 C 261.641 382, 261.840 381.550, 261.500 381 C 261.109 380.367, 263.662 380, 268.459 380 C 272.919 380, 279.153 379.165, 283.610 377.971 C 291.273 375.917, 300.334 371.887, 301.488 370.019 C 302.472 368.428, 304 368.822, 304 370.667 C 304 371.583, 304.285 372.049, 304.633 371.701 C 304.980 371.353, 305.187 367.403, 305.091 362.924 C 304.924 355.089, 306.284 348, 307.955 348 C 308.395 348, 309.315 348.675, 310 349.500 C 312.140 352.079, 313.587 351.180, 316.338 345.563 C 319.198 339.721, 319.529 338.555, 318.069 339.457 C 316.248 340.583, 315.969 338.059, 317.692 336.047 C 319.906 333.461, 321.387 333.412, 320.725 335.945 C 320.356 337.355, 320.784 337.973, 322.283 338.195 C 323.419 338.363, 325.095 339.850, 326.006 341.500 C 328.566 346.135, 331.281 345.477, 332.200 340 C 332.825 336.274, 333.948 334.553, 338.728 329.992 C 341.902 326.962, 346.075 323.227, 348 321.693 C 349.925 320.158, 350.669 319.304, 349.652 319.795 C 346.848 321.151, 333.611 333.099, 331.160 336.486 C 327.999 340.856, 328.524 337.786, 332.202 330.394 C 335.617 323.533, 347.196 311.425, 356.181 305.319 C 364.910 299.388, 375.438 282.918, 378.229 270.828 C 378.842 268.173, 379.680 266, 380.090 266 C 380.501 266, 381.825 267.599, 383.033 269.553 C 384.240 271.507, 385.514 272.819, 385.864 272.468 C 386.566 271.766, 386.067 236.951, 385.337 235.750 C 385.087 235.338, 385.275 235, 385.756 235 C 386.236 235, 387.487 236.688, 388.534 238.750 L 390.439 242.500 390.970 237.538 L 391.500 232.577 395.750 243.549 C 399.198 252.451, 399.998 255.747, 399.988 261.011 C 399.961 275.574, 394.566 286.450, 378.661 304 C 375.920 307.025, 372.851 310.850, 371.842 312.500 C 370.833 314.150, 370.011 315.050, 370.016 314.500 C 370.026 313.261, 372.518 304.127, 373.495 301.750 C 373.930 300.691, 373.767 300, 373.082 300 C 372.460 300, 371.504 301.238, 370.959 302.750 C 370.414 304.262, 368.063 307.230, 365.734 309.344 C 363.405 311.458, 362.483 312.696, 363.684 312.094 C 364.886 311.492, 366.123 311, 366.434 311 C 366.745 311, 367 313.700, 367 317 C 367 320.300, 367.444 323, 367.986 323 C 368.528 323, 370.366 320.237, 372.070 316.861 C 373.775 313.485, 377.956 307.522, 381.363 303.611 C 394.356 288.693, 402 275.198, 402 267.177 C 402 265.674, 402.683 263.470, 403.517 262.279 C 404.352 261.087, 405.475 256.639, 406.014 252.393 C 406.552 248.148, 407.215 244.451, 407.488 244.178 C 407.761 243.905, 411.530 244.654, 415.863 245.841 C 420.195 247.028, 424.024 248, 424.370 248 C 426.569 248, 423.857 244.292, 416 236.555 C 411.050 231.681, 407 227.312, 407 226.847 C 407 225.735, 408.736 225.777, 412.966 226.990 C 418.790 228.660, 419.061 226.587, 413.718 221.245 C 408.168 215.694, 407.397 216.220, 412.616 221.997 C 414.605 224.199, 415.841 226, 415.363 226 C 414.885 226, 411.393 225.113, 407.603 224.030 C 403.814 222.946, 400.359 222.278, 399.927 222.545 C 399.494 222.813, 398.831 225.505, 398.453 228.529 C 398.075 231.553, 397.447 234.224, 397.057 234.465 C 396.395 234.874, 389.967 217.751, 386.559 206.500 C 385.726 203.750, 385.243 202.850, 385.487 204.500 C 385.730 206.150, 386.590 211.775, 387.399 217 C 388.980 227.210, 389.935 236, 389.463 236 C 389.303 236, 386.845 233.075, 384 229.500 C 381.155 225.925, 378.193 223, 377.417 223 C 376.641 223, 373.230 225.043, 369.837 227.541 C 362.829 232.700, 362.512 232.568, 361.309 224.009 C 360.596 218.933, 360.485 219.442, 359.900 230.500 C 359.394 240.055, 358.630 244.436, 356.151 252 C 348.684 274.773, 335.302 290.611, 319.759 295.069 C 317.325 295.767, 315.663 294.694, 317.845 293.833 C 319.067 293.352, 325.417 284.183, 327.772 279.500 C 331.193 272.699, 334.851 260.624, 336.601 250.356 C 339.495 233.375, 337.043 209.825, 330.003 187 C 326.512 175.683, 319.293 160.288, 316.377 157.946 C 314.828 156.701, 314.857 156.916, 316.588 159.500 C 326.251 173.924, 334.836 204.562, 335.643 227.500 L 336.100 240.500 331.960 236.020 C 325.069 228.563, 316.654 215.070, 311.510 203.230 C 306.629 191.996, 304.170 188.282, 307.932 197.828 C 313.777 212.657, 323.143 228.494, 331.689 237.999 L 336.261 243.084 335.019 250.792 C 332.263 267.897, 325.243 283.749, 316.245 293.182 C 313.193 296.382, 310.942 299, 311.242 299 C 312.604 299, 325.783 294.632, 328.250 293.363 C 329.762 292.585, 331 292.160, 331 292.418 C 331 293.674, 323.721 310.731, 321.836 313.894 C 316.575 322.719, 307.287 329.852, 289.500 338.725 C 273.616 346.650, 264.972 350, 260.411 350 C 256.225 350, 229.450 337.097, 219.219 330.149 C 211.507 324.911, 206.011 318.737, 205.958 315.247 C 205.934 313.736, 204.872 309.462, 203.596 305.750 C 202.321 302.038, 201.458 299, 201.679 299 C 201.899 299, 203.844 299.900, 206 301 C 208.156 302.100, 210.359 303, 210.895 303 C 211.432 303, 210.092 299.962, 207.919 296.250 C 201.053 284.520, 196.057 267.775, 193.885 249.210 C 192.593 238.172, 193.077 236.255, 196.853 237.453 C 198.901 238.103, 198.901 238.115, 196.957 241.303 C 193.858 246.385, 194.663 246.741, 199.250 242.317 C 205.102 236.672, 208.887 234.971, 215.200 235.150 C 218.511 235.243, 219.374 235.459, 217.500 235.725 C 213.245 236.329, 208.269 241.450, 207.497 246.020 C 206.436 252.300, 210.677 263, 214.228 263 C 214.823 263, 214.552 262.162, 213.625 261.138 C 210.608 257.805, 209.984 253.556, 212.018 250.211 C 214.615 245.941, 216.093 245.283, 215.412 248.700 C 214.709 252.232, 216.469 257, 218.475 257 C 219.657 257, 220 255.762, 220 251.500 C 220 248.475, 220.338 246.003, 220.750 246.007 C 221.162 246.011, 222.571 247.586, 223.879 249.507 C 227.125 254.273, 229 254.069, 229 248.950 C 229 244.248, 226.954 239.782, 223.783 237.561 C 222.558 236.702, 222.089 236, 222.743 236 C 224.566 236, 230.918 241.940, 232.625 245.241 C 234.747 249.345, 235.452 248.018, 233.559 243.486 C 231.728 239.104, 231.668 238.677, 233 239.500 C 234.570 240.470, 234.108 238.704, 232.217 236.500 C 229.719 233.591, 223.518 231, 219.049 231 C 215.999 231, 214.708 230.411, 213.028 228.250 C 211.257 225.972, 211.085 225.901, 212.026 227.836 C 212.651 229.120, 213.013 230.245, 212.831 230.336 C 212.649 230.426, 209.690 231.949, 206.255 233.721 C 200.534 236.671, 197 237.126, 197 234.912 C 197 234.432, 198.510 231.668, 200.356 228.769 C 207.936 216.866, 214.619 202.118, 217.540 190.847 C 218.444 187.359, 219.534 184.279, 219.962 184.002 C 220.592 183.596, 222.092 151, 221.481 151 C 221.383 151, 220.784 154.713, 220.150 159.250 M 377.165 156 C 376.892 163.673, 376.121 164.619, 371.883 162.486 C 369.101 161.085, 368.767 161.057, 370 162.325 C 370.825 163.174, 372.718 164.167, 374.206 164.532 C 376.498 165.093, 377.006 164.825, 377.519 162.781 C 377.852 161.454, 377.953 158.147, 377.743 155.434 L 377.360 150.500 377.165 156 M 299.118 163.114 C 299.053 169.501, 298.548 177.111, 297.995 180.025 C 297.443 182.939, 297.189 185.522, 297.431 185.764 C 297.673 186.006, 298.160 184.471, 298.513 182.352 C 299.676 175.383, 300.174 175.339, 302.537 182 C 305.420 190.124, 305.613 189.187, 303 179.757 C 301.900 175.788, 300.947 169.156, 300.882 165.020 C 300.676 151.929, 299.248 150.385, 299.118 163.114 M 166.079 156.750 C 166.026 158.262, 166.574 158.995, 167.750 158.985 C 168.829 158.975, 169.078 158.688, 168.400 158.235 C 167.795 157.831, 167.043 156.825, 166.729 156 C 166.347 154.998, 166.132 155.247, 166.079 156.750 M 354.796 168.147 C 350.262 169.805, 350.032 175.130, 354.142 183.250 C 356.963 188.822, 357.102 187.791, 354.412 181.250 C 350.199 171.005, 351.406 168.796, 361.232 168.764 C 366.059 168.748, 366.810 168.570, 364.500 167.990 C 360.363 166.951, 357.959 166.990, 354.796 168.147 M 385 171 C 384.175 171.533, 382.375 172.038, 381 172.121 C 378.644 172.264, 378.629 172.297, 380.750 172.706 C 382.708 173.083, 383.023 173.812, 383.180 178.320 L 383.360 183.500 383.745 178.507 C 383.956 175.761, 384.845 172.724, 385.720 171.757 C 387.492 169.799, 387.251 169.545, 385 171 M 375.563 173.070 C 377.641 175.366, 378 175.447, 378 173.617 C 378 172.856, 377.059 171.987, 375.908 171.686 C 373.900 171.161, 373.887 171.217, 375.563 173.070 M 228.072 182.685 C 228 185.890, 230.258 197.911, 231.579 201.349 C 232.224 203.027, 232.085 203.073, 230.069 201.849 C 228.224 200.729, 224.040 193.294, 221.713 187 C 220.498 183.716, 221.071 189.676, 222.477 194.962 C 223.940 200.460, 223.507 201.941, 220.424 201.985 C 218.613 202.010, 215 206.503, 215 208.729 C 215 209.975, 216.889 212.493, 219.641 214.915 C 223.666 218.458, 224.906 219, 228.984 219 C 233.397 219, 233.946 219.308, 237.891 223.986 C 240.203 226.728, 243.986 230.080, 246.297 231.435 C 248.609 232.790, 252.196 236.171, 254.269 238.949 C 256.343 241.727, 258.679 244, 259.461 244 C 260.243 244, 262.821 241.513, 265.191 238.473 C 267.561 235.433, 271.142 231.857, 273.149 230.525 C 275.157 229.194, 278.757 225.831, 281.149 223.053 C 285.128 218.434, 285.870 218.001, 289.824 218 C 293.645 218, 294.751 217.423, 299.324 213.044 C 303.572 208.976, 304.311 207.782, 303.448 206.385 C 302.546 204.924, 297.508 201.669, 294.700 200.733 C 294.214 200.571, 294.567 197.856, 295.485 194.700 C 296.403 191.543, 296.992 188.476, 296.795 187.884 C 296.597 187.292, 295.645 189.439, 294.677 192.654 C 292.995 198.246, 292.677 198.613, 287.363 201.106 L 281.808 203.712 282.431 200.606 C 282.773 198.898, 283.245 193.450, 283.480 188.500 C 283.947 178.627, 284.055 178.233, 280.474 199.500 C 279.640 204.450, 278.701 209.672, 278.387 211.105 C 277.946 213.116, 278.406 214.174, 280.408 215.749 C 281.834 216.870, 283 218.190, 283 218.682 C 283 219.173, 280.750 221.791, 278 224.500 C 272.490 229.927, 272.020 229.842, 275.020 223.960 C 277.711 218.686, 275.994 218.891, 272.593 224.250 C 270.238 227.960, 261.484 235, 259.225 235 C 257.831 235, 250.837 224.920, 246.257 216.311 C 241.747 207.833, 240.304 206.089, 241.395 210.439 C 241.732 211.780, 241.633 213.109, 241.175 213.392 C 239.541 214.402, 232.613 198.870, 230.380 189.193 C 229.080 183.554, 228.114 180.832, 228.072 182.685 M 149.150 185.421 C 149.067 188.128, 148.413 191.053, 147.696 191.921 C 146.840 192.958, 146.623 194.702, 147.064 197 L 147.737 200.500 147.868 197.332 C 148.037 193.261, 148.968 190.862, 150.105 191.565 C 150.597 191.869, 151.006 191.079, 151.014 189.809 C 151.021 188.539, 151.255 186.375, 151.534 185 C 151.966 182.868, 151.908 182.795, 151.139 184.500 C 150.327 186.299, 150.190 186.199, 149.768 183.500 C 149.431 181.344, 149.258 181.884, 149.150 185.421 M 378.406 189.181 C 377.552 190.834, 377.070 192.403, 377.335 192.668 C 377.600 192.934, 378.114 192.217, 378.476 191.075 C 379.255 188.622, 380.770 188.450, 383.677 190.486 C 385.720 191.918, 385.756 191.882, 384.650 189.538 C 382.887 185.802, 380.232 185.650, 378.406 189.181 M 358.289 190.215 C 359.279 191.785, 360.006 194.947, 360.015 197.715 C 360.042 206.635, 363.724 210.058, 369.054 206.118 C 371.035 204.654, 371.987 204.404, 372.287 205.271 C 372.521 205.947, 372.595 205.713, 372.450 204.750 C 372.306 203.787, 372.595 203, 373.094 203 C 373.592 203, 374 202.127, 374 201.059 C 374 199.991, 374.450 198.840, 375 198.500 C 375.550 198.160, 376 197.391, 376 196.791 C 376 196.191, 374.659 197.551, 373.020 199.814 C 371.381 202.077, 368.904 204.672, 367.515 205.582 C 363.750 208.049, 362.235 206.152, 361.428 197.963 C 360.917 192.783, 360.234 190.641, 358.664 189.292 L 356.578 187.500 358.289 190.215 M 141 196.500 C 139.136 197.875, 138.175 199, 138.865 199 C 139.554 199, 139.840 199.450, 139.500 200 C 138.035 202.371, 139.986 200.707, 142.432 197.500 C 145.610 193.334, 145.447 193.219, 141 196.500 M 393.951 202.244 C 397.506 205.978, 399.652 207.563, 400.123 206.801 C 400.560 206.094, 399.790 205.089, 398.173 204.255 C 396.703 203.498, 393.925 201.447, 392 199.698 C 390.075 197.949, 390.953 199.095, 393.951 202.244 M 287.180 202.700 C 283.835 204.330, 279 209.721, 279 211.821 C 279 212.444, 280.180 213.727, 281.621 214.671 C 284.126 216.313, 284.308 216.303, 285.721 214.444 C 287.873 211.613, 291.127 203.860, 290.790 202.366 C 290.564 201.368, 289.761 201.442, 287.180 202.700 M 218.766 204.945 C 215.609 207.793, 215.551 207.983, 217.026 210.673 C 219.040 214.346, 224.587 218, 228.148 218 C 229.717 218, 231 217.740, 231 217.422 C 231 215.892, 223.745 202, 222.946 202 C 222.443 202, 220.562 203.325, 218.766 204.945 M 291.919 205.750 C 291.239 207.813, 289.854 210.976, 288.841 212.780 C 286.478 216.991, 286.480 217, 289.850 217 C 292.940 217, 300.268 212.237, 301.916 209.157 C 303.009 207.114, 301.694 205.391, 297.316 203.128 C 293.937 201.383, 293.248 201.717, 291.919 205.750 M 370.228 210.718 C 368.205 216.127, 367.861 217.522, 368.804 216.500 C 369.922 215.289, 372.158 208.825, 371.639 208.306 C 371.436 208.102, 370.801 209.188, 370.228 210.718 M 365.063 223.563 C 363.800 226.608, 363.001 229.334, 363.286 229.619 C 363.571 229.905, 364.764 227.573, 365.938 224.438 C 368.706 217.039, 368.041 216.375, 365.063 223.563 M 297.885 225.784 C 298.537 227.003, 299.505 228, 300.035 228 C 302.282 228, 300.698 230.092, 296.662 232.458 C 292.332 234.995, 287 235.864, 287 234.032 C 287 233.500, 288.238 232.393, 289.750 231.572 C 291.262 230.751, 292.074 230.062, 291.554 230.040 C 290.347 229.989, 283 235.053, 283 235.935 C 283 236.300, 284.575 236.415, 286.500 236.190 C 290.212 235.756, 291.008 236.918, 288.453 239.039 C 287.265 240.025, 287.193 240.501, 288.146 241.090 C 289.122 241.694, 289.130 242.457, 288.181 244.678 C 287.030 247.373, 287.123 247.340, 290.238 243.944 C 292.032 241.989, 294.342 239.751, 295.371 238.972 C 297.044 237.704, 297.018 237.921, 295.124 241.027 C 292.182 245.854, 292.239 253.582, 295.250 258.025 C 296.488 259.851, 298.147 261.559, 298.937 261.819 C 299.864 262.124, 299.598 261.305, 298.187 259.511 C 295.455 256.038, 295.431 253.657, 298.082 249.368 C 300.640 245.228, 302 245.072, 302 248.918 C 302 252.832, 302.922 255, 304.588 255 C 306.305 255, 307.422 250.817, 306.589 247.500 C 306.178 245.861, 306.380 245, 307.176 245 C 308.834 245, 314 250.063, 314 251.687 C 314 252.409, 314.675 253, 315.500 253 C 316.589 253, 317 251.878, 317 248.901 C 317 243.833, 314.630 238.624, 311.705 237.265 C 310.492 236.701, 308.375 235.727, 307 235.101 C 304.870 234.130, 305.269 234.042, 309.692 234.507 C 316.006 235.171, 320.723 237.055, 324.922 240.587 C 326.661 242.051, 328.309 243.024, 328.584 242.749 C 328.859 242.474, 327.715 241.097, 326.042 239.689 C 322.514 236.720, 322.381 236.308, 324.750 235.689 C 325.946 235.377, 325.714 235.195, 324.019 235.116 C 322.655 235.052, 319.280 234.137, 316.519 233.082 C 313.759 232.027, 309.608 230.665, 307.295 230.055 C 304.982 229.446, 301.652 227.737, 299.895 226.258 C 296.993 223.816, 296.808 223.773, 297.885 225.784 M 374.624 226.184 C 374.378 227.458, 373.443 233.022, 372.547 238.548 C 371.651 244.075, 370.659 249.587, 370.343 250.798 C 369.889 252.534, 370.197 253, 371.800 253 C 372.918 253, 374.034 253.563, 374.280 254.250 C 374.525 254.938, 374.994 255.256, 375.322 254.958 C 376.307 254.061, 378.018 241.036, 378.267 232.534 C 378.467 225.699, 378.256 224.517, 376.786 224.217 C 375.643 223.984, 374.922 224.639, 374.624 226.184 M 399.739 228.750 C 399.428 231.179, 399.956 234.163, 401.239 237.219 C 403.223 241.947, 406 245.390, 406 243.122 C 406 242.505, 406.900 242, 408 242 C 409.100 242, 410 241.830, 410 241.621 C 410 241.413, 408.407 238.600, 406.460 235.371 C 404.513 232.142, 402.664 228.488, 402.352 227.250 C 401.493 223.850, 400.277 224.547, 399.739 228.750 M 129.175 227.519 C 129.079 228.079, 125.880 232.691, 122.068 237.769 C 116.995 244.523, 115.600 247, 116.868 247 C 117.820 247, 119.078 247.478, 119.662 248.062 C 120.411 248.811, 121.756 247.687, 124.229 244.245 C 129.489 236.923, 130.146 235.307, 129.730 230.712 C 129.521 228.395, 129.271 226.958, 129.175 227.519 M 148.549 228.945 C 147.099 230.549, 141 251.839, 141 255.300 C 141 255.856, 141.787 255.634, 142.750 254.807 C 143.713 253.980, 145.287 253.025, 146.250 252.683 C 147.213 252.342, 148.021 251.261, 148.047 250.281 C 148.073 249.302, 148.892 243.662, 149.867 237.750 C 150.842 231.838, 151.341 227, 150.975 227 C 150.609 227, 149.518 227.875, 148.549 228.945 M 228 228.894 C 229.375 230.028, 230.838 230.966, 231.250 230.978 C 231.662 230.990, 232 231.675, 232 232.500 C 232 233.325, 232.745 234, 233.655 234 C 235.169 234, 235.175 233.851, 233.722 232.250 C 232.849 231.287, 230.641 229.675, 228.817 228.667 L 225.500 226.833 228 228.894 M 364.832 232.800 C 362.810 234.027, 362 235.517, 361.485 238.959 C 358.961 255.835, 347.875 278.024, 337.354 287.263 C 333.849 290.340, 330.661 296.318, 326.829 307 C 324.431 313.685, 323.276 330.177, 324.914 334.358 L 326.033 337.217 329.266 330.858 C 331.533 326.402, 335.609 321.359, 342.894 314 C 354.832 301.939, 360.704 294.883, 362.657 290.250 C 364.301 286.349, 366.434 285.727, 364.971 289.576 C 364.433 290.992, 362.615 294.255, 360.932 296.826 L 357.872 301.500 362.487 296.500 C 368.020 290.504, 375.380 276.303, 377.001 268.497 C 378.120 263.103, 378.055 262.682, 375.508 258.832 C 372.590 254.424, 372.674 254.429, 364.272 258.096 C 361.397 259.351, 358.804 260.137, 358.509 259.843 C 358.215 259.548, 359.491 255.976, 361.345 251.904 C 363.200 247.832, 365.482 242.025, 366.418 239 C 367.354 235.975, 368.355 232.938, 368.643 232.250 C 369.324 230.625, 368.138 230.796, 364.832 232.800 M 214.362 238.500 C 213.542 240.636, 214.665 243, 216.500 243 C 218.620 243, 219.506 240.315, 217.989 238.487 C 216.415 236.590, 215.093 236.594, 214.362 238.500 M 298 239.941 C 298 243.236, 299.052 244.301, 301.410 243.396 C 303.613 242.551, 303.403 239.286, 301.066 238.035 C 298.256 236.531, 298 236.690, 298 239.941 M 201.037 256.500 C 201.022 257.050, 202.156 258.850, 203.558 260.500 C 204.959 262.150, 205.665 262.600, 205.126 261.500 C 203.676 258.540, 201.068 255.350, 201.037 256.500 M 223.703 260.593 C 222.715 261.917, 222.323 263, 222.831 263 C 224.127 263, 226.259 260.260, 225.845 259.126 C 225.655 258.609, 224.691 259.268, 223.703 260.593 M 142.070 266.083 C 142.109 267.413, 142.548 269.400, 143.047 270.500 C 143.678 271.894, 143.768 271.288, 143.344 268.500 C 142.637 263.857, 141.969 262.589, 142.070 266.083 M 253.141 316.350 C 251.167 318.451, 251.099 318.837, 252.491 319.992 C 253.347 320.703, 254.337 320.996, 254.691 320.643 C 255.044 320.289, 254.808 320, 254.167 320 C 252.204 320, 252.868 317.206, 255.223 315.557 C 256.445 314.701, 256.973 314, 256.397 314 C 255.820 314, 254.355 315.057, 253.141 316.350 M 183.100 320.691 C 183.045 322.446, 183.450 324.160, 184 324.500 C 185.150 325.211, 185.150 323.591, 184 320 C 183.235 317.613, 183.195 317.644, 183.100 320.691 M 289.620 340.528 C 273.458 348.540, 264.368 352, 259.483 352 C 257.763 352, 252.225 349.990, 247.177 347.533 C 242.130 345.077, 238.003 343.389, 238.006 343.783 C 238.011 344.543, 239.796 351.567, 240.566 353.863 C 240.952 355.013, 241.285 355.013, 242.699 353.863 C 244.166 352.670, 244.291 352.723, 243.702 354.292 C 243.166 355.723, 243.984 356.499, 247.765 358.143 C 257.195 362.245, 287.182 361.467, 286.245 357.145 C 286.088 356.423, 287.079 356.050, 288.806 356.182 C 290.355 356.300, 293.282 355.371, 295.311 354.117 C 298.770 351.979, 299.468 350.661, 299.077 347 C 298.938 345.701, 299.048 345.695, 299.892 346.952 C 300.429 347.751, 300.586 348.876, 300.242 349.452 C 299.898 350.029, 300.377 349.882, 301.308 349.128 C 302.323 348.304, 303.010 346.304, 303.024 344.128 C 303.037 342.132, 303.440 338.813, 303.919 336.750 C 304.398 334.688, 304.724 333.034, 304.645 333.076 C 304.565 333.118, 297.804 336.472, 289.620 340.528 M 222 338 C 222 338.550, 222.675 339, 223.500 339 C 224.325 339, 225 338.550, 225 338 C 225 337.450, 224.325 337, 223.500 337 C 222.675 337, 222 337.450, 222 338 M 294.500 352 C 293.505 353.100, 293.110 354, 293.623 354 C 294.136 354, 295.326 353.100, 296.268 352 C 297.210 350.900, 297.605 350, 297.145 350 C 296.686 350, 295.495 350.900, 294.500 352 M 263.380 382.452 C 262.668 384.308, 263.707 386, 265.559 386 C 266.429 386, 267 385.010, 267 383.500 C 267 380.752, 264.329 379.979, 263.380 382.452 M 338.349 397.440 C 338.768 404.781, 338.640 409.105, 337.991 409.505 C 337.435 409.849, 331.697 411.191, 325.240 412.487 C 318.783 413.783, 314.401 414.879, 315.502 414.922 C 316.603 414.965, 322.196 414.106, 327.932 413.013 C 333.667 411.920, 338.458 411.133, 338.579 411.263 C 338.701 411.393, 339.130 426.462, 339.533 444.750 L 340.266 478 335.698 478 C 333.186 478, 329.998 478.431, 328.614 478.957 C 326.277 479.845, 325.876 479.527, 322.991 474.484 C 319.823 468.947, 315.817 465, 313.365 465 C 311.414 465, 304.704 471.976, 301.962 476.854 C 300.680 479.134, 299.205 481, 298.684 481 C 298.163 481, 296.232 480.070, 294.393 478.934 C 290.178 476.329, 285.369 476.114, 283.657 478.454 C 282.460 480.091, 282.249 480.029, 280.638 477.571 C 279.130 475.268, 278.453 475.012, 275.397 475.585 C 272.570 476.116, 271.423 475.807, 269.493 473.994 C 267.156 471.798, 266.998 471.784, 262.953 473.402 C 259.445 474.806, 258.274 474.867, 255.328 473.802 C 252.225 472.679, 251.437 472.780, 248.050 474.729 C 245.182 476.380, 243.331 476.766, 240.495 476.305 C 237.374 475.799, 236.456 476.070, 235.073 477.904 L 233.407 480.112 230.949 476.306 C 227.905 471.593, 225.264 471.122, 219.607 474.284 L 215.260 476.714 209.358 469.607 C 206.051 465.626, 202.519 462.365, 201.327 462.193 C 199.150 461.880, 197.035 465.362, 192.482 476.750 C 190.387 481.989, 189 482.201, 189 477.282 C 189 461.571, 192.957 412.881, 194.577 408.659 C 195.294 406.792, 196.575 406.503, 197.500 408 C 197.840 408.550, 198.879 408.992, 199.809 408.983 C 200.910 408.972, 200.366 408.240, 198.250 406.885 C 196.462 405.740, 195 404.608, 195 404.369 C 195 403.079, 200.259 393.846, 202.534 391.143 C 203.988 389.414, 204.993 388, 204.767 388 C 204.541 388, 202.364 388.704, 199.928 389.565 C 196.115 390.912, 195.105 391.909, 192.657 396.739 C 188.244 405.445, 186.316 420.189, 183.143 469.500 L 182.500 479.500 180.180 474.790 C 178.904 472.200, 175.592 467.250, 172.819 463.790 C 165.162 454.238, 161.817 449.091, 159.320 443.024 C 156.521 436.221, 156.257 437.940, 158.983 445.224 C 161.101 450.886, 170.086 467.184, 172.918 470.500 C 175.078 473.030, 177.625 481.722, 178.485 489.500 C 179.573 499.341, 179.863 500, 183.108 500 C 185.845 500, 185.999 499.773, 185.989 495.750 C 185.983 493.413, 185.307 489.288, 184.487 486.585 C 183.667 483.882, 183.199 481.467, 183.447 481.220 C 183.695 480.972, 185.337 481.271, 187.097 481.884 C 191.015 483.250, 192.426 482.299, 194.085 477.170 C 196.114 470.902, 199.967 464, 201.439 464 C 202.931 464, 209.056 470.655, 211.793 475.250 C 213.806 478.630, 214.665 478.653, 220.610 475.493 C 225.128 473.090, 225.408 473.059, 227.269 474.743 C 229.789 477.021, 232.558 482.576, 233.380 487 C 234.441 492.717, 235.089 493.215, 240.026 492.105 C 246.998 490.539, 249.806 491.564, 251.033 496.124 C 252.059 499.934, 252.158 500, 256.819 500 C 261.170 500, 261.655 499.752, 262.694 497 C 264.038 493.439, 266.046 493.205, 271.261 496 C 276.951 499.050, 277.591 498.697, 279.880 491.250 C 282.376 483.132, 285.376 478, 287.625 478 C 288.534 478, 291.565 479.407, 294.359 481.126 C 299.070 484.025, 299.514 484.122, 300.469 482.474 C 308.195 469.150, 313.201 464.772, 316.704 468.275 C 317.624 469.195, 319.804 472.547, 321.550 475.724 C 323.377 479.049, 325.293 481.365, 326.068 481.181 C 332.663 479.618, 336.165 479.398, 338.208 480.420 C 340.349 481.490, 340.500 482.174, 340.500 490.784 L 340.500 500.003 346.546 500.001 L 352.593 500 354.352 492.250 C 355.319 487.986, 358.510 479.553, 361.445 473.500 C 366.497 463.083, 375.494 439.160, 374.669 438.336 C 374.458 438.125, 373.266 440.748, 372.020 444.165 C 369.712 450.497, 359.898 469.268, 357.459 472.016 C 354.835 474.973, 349.557 487.587, 348.469 493.500 C 347.505 498.740, 347.279 495.763, 346.685 470 C 345.570 421.723, 345.747 407, 347.441 407 C 348.234 407, 349.160 406.551, 349.499 406.001 C 349.855 405.426, 349.141 405.108, 347.812 405.251 C 345.617 405.488, 345.475 405.101, 344.806 397.071 C 344.420 392.435, 344.303 388.320, 344.546 387.926 C 345.096 387.036, 342.525 386, 339.766 386 C 337.754 386, 337.714 386.326, 338.349 397.440 M 259.444 390.294 C 256.766 392.598, 256.528 393.361, 256.396 400.069 C 256.267 406.635, 255.876 407.962, 252.377 413.689 C 249.363 418.621, 248.055 419.947, 246.500 419.646 C 230.178 416.483, 213.264 412.639, 208.577 411.027 C 202.142 408.813, 200.588 408.529, 203.182 410.042 C 206.209 411.808, 217.510 414.953, 230.121 417.540 C 245.565 420.707, 246 420.842, 246 422.464 C 246 423.970, 237.428 435.386, 229.235 444.794 C 226.221 448.255, 224.005 451.339, 224.312 451.646 C 225.115 452.449, 233.773 449.393, 238.733 446.556 C 241.115 445.194, 243.222 444.551, 243.553 445.086 C 243.876 445.608, 244.683 450.358, 245.346 455.640 C 246.264 462.950, 246.817 464.916, 247.659 463.872 C 251.726 458.831, 260.849 434.908, 262.483 425 C 263.511 418.766, 264.930 416.485, 264.971 421 C 265.053 430.008, 270.072 450.269, 274.261 458.500 C 276.602 463.099, 276.675 463.008, 279.454 451.980 C 281.832 442.545, 281.704 442.659, 288.540 443.923 C 295.332 445.178, 305 445.350, 305 444.216 C 305 443.784, 303.626 442.620, 301.947 441.628 C 297.865 439.217, 285 426.151, 285 424.416 C 285 422.084, 292.396 419.111, 303.189 417.105 C 308.860 416.051, 312.302 415.146, 310.838 415.094 C 305.911 414.920, 292.540 417.976, 287.650 420.395 L 282.799 422.794 277.900 415.147 C 273.135 407.710, 273 407.291, 273 399.905 C 273 391.283, 271.780 389.325, 265.799 388.355 C 263.061 387.911, 261.750 388.311, 259.444 390.294 M 258.989 393.250 C 256.810 396.824, 256.435 401.076, 258.035 404.066 C 259.452 406.713, 265.326 406.674, 268 404 C 270.572 401.428, 271.364 401.451, 269.970 404.056 C 269.365 405.187, 267.886 406.509, 266.685 406.993 C 265.080 407.639, 264.945 407.890, 266.177 407.937 C 269.145 408.049, 272 403.186, 272 398.020 C 272 392.284, 269.909 390, 264.657 390 C 261.571 390, 260.648 390.530, 258.989 393.250 M 251.750 423.750 C 247.819 431.863, 244.292 439.193, 243.911 440.040 C 243.531 440.887, 243.799 442.372, 244.507 443.341 C 245.665 444.925, 246.103 444.532, 248.865 439.433 C 252.481 432.757, 261 412.357, 261 410.375 C 261 406.401, 258.179 410.480, 251.750 423.750 M 266.777 409.557 C 266.470 409.863, 267.043 412.225, 268.049 414.807 C 269.055 417.388, 271.261 423.100, 272.952 427.500 C 277.171 438.476, 279.122 441.226, 282.899 441.524 L 285.973 441.765 283.438 437.633 C 279.771 431.656, 273.581 419.260, 271.512 413.750 C 269.897 409.450, 268.299 408.034, 266.777 409.557 M 195.455 486.750 C 192.939 489.913, 189.999 494.188, 188.920 496.250 L 186.959 500 189.480 500 C 191.561 500, 192.001 499.521, 192.005 497.250 C 192.008 495.738, 193.127 493.150, 194.492 491.500 L 196.975 488.500 196.350 494.250 L 195.725 500 205.362 500 L 215 500 215 494 C 215 490.700, 215.395 488, 215.878 488 C 217.919 488, 219.377 491.413, 219.120 495.588 L 218.849 500 226.079 500 L 233.310 500 231.405 497.852 C 228.159 494.192, 215.260 485.040, 210.429 482.970 C 202.721 479.665, 200.681 480.180, 195.455 486.750 M 306.500 483.143 C 301.768 485.573, 283.151 497.946, 282.402 499.159 C 282.116 499.621, 286.894 500, 293.021 500 L 304.159 500 303.464 493.513 C 302.873 487.986, 303.015 486.931, 304.428 486.389 C 306.832 485.467, 307.164 486.172, 307.748 493.444 L 308.274 500 319.137 500 C 326.502 500, 330 499.639, 330 498.878 C 330 498.110, 330.482 498.155, 331.524 499.020 C 332.362 499.716, 333.326 500.007, 333.665 499.668 C 334.420 498.913, 328.085 491.040, 322.071 485.258 C 316.908 480.294, 313.063 479.772, 306.500 483.143 M 407.286 493.500 C 407.294 496.250, 407.488 497.256, 407.718 495.736 C 407.947 494.216, 407.941 491.966, 407.704 490.736 C 407.467 489.506, 407.279 490.750, 407.286 493.500" stroke="none" fill="#3d4755" fill-rule="evenodd"/><path d="M 384.440 45.227 C 383.373 45.787, 378.900 49.757, 374.500 54.049 C 367.354 61.020, 364.578 62.856, 348.500 71.236 C 324.720 83.632, 315.602 89.586, 309.348 96.803 C 307.282 99.188, 307.004 99.237, 302.348 98.041 C 289.490 94.736, 264.915 94.969, 246.178 98.574 L 237.275 100.287 227.388 93.256 C 213.087 83.086, 201.040 76.508, 190.097 72.893 C 177.561 68.753, 174.318 67.031, 169.500 61.958 C 164.229 56.408, 154.236 49, 152.021 49 C 150.041 49, 149.042 53.124, 148.993 61.500 C 148.977 64.250, 148.081 71.900, 147.001 78.500 C 144.516 93.698, 143.554 108.023, 144.887 109.974 C 145.755 111.244, 146.220 111.175, 148.249 109.474 C 149.543 108.388, 149.229 108.867, 147.551 110.537 C 142.376 115.688, 138 121.697, 138 123.653 C 138 126.301, 140.792 127.725, 149.709 129.628 C 164.281 132.738, 165.062 132.980, 159 132.505 C 155.975 132.267, 152.488 131.779, 151.250 131.420 C 149.333 130.863, 149 131.145, 149 133.324 C 149 136.490, 153.290 148.589, 157.102 156.175 L 159.954 161.851 157.893 166.509 C 155.614 171.661, 155.830 172.696, 158.849 171.081 C 159.960 170.486, 162.682 170, 164.899 170 C 169.774 170, 176 174.783, 176 178.527 C 176 180.696, 171.681 187.266, 166.485 193 C 165.239 194.375, 162.788 198.800, 161.038 202.833 L 157.855 210.165 158.968 221.333 C 159.580 227.475, 160.695 234.075, 161.446 236 C 162.196 237.925, 163.803 242.650, 165.017 246.500 C 166.231 250.350, 168.534 255.988, 170.134 259.029 C 176.979 272.038, 195.262 292.969, 204.138 297.957 L 208.395 300.350 205.836 295.925 C 199.355 284.716, 194.281 266.416, 191.936 245.786 C 190.468 232.878, 191.222 210.647, 193.488 200 C 195.328 191.356, 202.102 169.769, 202.766 170.432 C 203.011 170.678, 202.235 173.906, 201.039 177.606 C 196.070 192.986, 193.886 205.143, 193.333 220.500 L 192.793 235.500 195.355 233 C 198.911 229.530, 207.219 215.427, 210.861 206.680 C 216.168 193.932, 218.994 182.546, 219.063 173.638 C 219.097 169.162, 219.678 162.125, 220.354 158 C 221.523 150.865, 221.562 151.303, 221.162 167 C 220.930 176.075, 220.390 183.726, 219.962 184.002 C 219.534 184.279, 218.444 187.359, 217.540 190.847 C 214.619 202.118, 207.936 216.866, 200.356 228.769 C 198.510 231.668, 197 234.432, 197 234.912 C 197 237.126, 200.534 236.671, 206.255 233.721 C 209.690 231.949, 212.649 230.426, 212.831 230.336 C 213.013 230.245, 212.651 229.120, 212.026 227.836 C 211.085 225.901, 211.257 225.972, 213.028 228.250 C 214.708 230.411, 215.999 231, 219.049 231 C 223.518 231, 229.719 233.591, 232.217 236.500 C 234.108 238.704, 234.570 240.470, 233 239.500 C 231.668 238.677, 231.728 239.104, 233.559 243.486 C 235.452 248.018, 234.747 249.345, 232.625 245.241 C 230.918 241.940, 224.566 236, 222.743 236 C 222.089 236, 222.558 236.702, 223.783 237.561 C 226.954 239.782, 229 244.248, 229 248.950 C 229 254.069, 227.125 254.273, 223.879 249.507 C 222.571 247.586, 221.162 246.011, 220.750 246.007 C 220.338 246.003, 220 248.475, 220 251.500 C 220 255.762, 219.657 257, 218.475 257 C 216.469 257, 214.709 252.232, 215.412 248.700 C 216.093 245.283, 214.615 245.941, 212.018 250.211 C 209.984 253.556, 210.608 257.805, 213.625 261.138 C 214.552 262.162, 214.823 263, 214.228 263 C 210.677 263, 206.436 252.300, 207.497 246.020 C 208.269 241.450, 213.245 236.329, 217.500 235.725 C 219.374 235.459, 218.511 235.243, 215.200 235.150 C 208.887 234.971, 205.102 236.672, 199.250 242.317 C 194.663 246.741, 193.858 246.385, 196.957 241.303 C 198.901 238.115, 198.901 238.103, 196.853 237.453 C 193.077 236.255, 192.593 238.172, 193.885 249.210 C 196.057 267.775, 201.053 284.520, 207.919 296.250 C 210.092 299.963, 211.432 303, 210.895 303 C 210.359 303, 208.156 302.100, 206 301 C 203.844 299.900, 201.899 299, 201.679 299 C 201.458 299, 202.321 302.038, 203.596 305.750 C 204.872 309.462, 205.934 313.736, 205.958 315.247 C 206.011 318.737, 211.507 324.911, 219.219 330.149 C 229.450 337.097, 256.225 350, 260.411 350 C 264.972 350, 273.616 346.650, 289.500 338.725 C 307.287 329.852, 316.575 322.719, 321.836 313.894 C 323.721 310.731, 331 293.674, 331 292.418 C 331 292.160, 329.762 292.585, 328.250 293.363 C 325.783 294.632, 312.604 299, 311.242 299 C 310.942 299, 313.193 296.382, 316.245 293.182 C 325.243 283.749, 332.263 267.897, 335.019 250.792 L 336.261 243.084 331.689 237.999 C 323.143 228.494, 313.777 212.657, 307.932 197.828 C 304.170 188.282, 306.629 191.996, 311.510 203.230 C 316.654 215.070, 325.069 228.563, 331.960 236.020 L 336.100 240.500 335.643 227.500 C 334.836 204.562, 326.251 173.924, 316.588 159.500 C 314.857 156.916, 314.828 156.701, 316.377 157.946 C 319.293 160.288, 326.512 175.683, 330.003 187 C 337.043 209.825, 339.495 233.375, 336.601 250.356 C 334.851 260.624, 331.193 272.699, 327.772 279.500 C 325.417 284.183, 319.067 293.352, 317.845 293.833 C 315.663 294.694, 317.325 295.767, 319.759 295.069 C 335.302 290.611, 348.684 274.773, 356.151 252 C 358.630 244.436, 359.394 240.055, 359.900 230.500 C 360.485 219.442, 360.596 218.933, 361.309 224.009 C 362.512 232.568, 362.829 232.700, 369.837 227.541 C 373.230 225.043, 376.641 223, 377.417 223 C 378.193 223, 381.155 225.925, 384 229.500 C 386.845 233.075, 389.303 236, 389.463 236 C 389.935 236, 388.980 227.210, 387.399 217 C 386.590 211.775, 385.730 206.150, 385.487 204.500 C 385.243 202.850, 385.726 203.750, 386.559 206.500 C 389.967 217.751, 396.395 234.874, 397.057 234.465 C 397.447 234.224, 398.075 231.553, 398.453 228.529 C 398.831 225.505, 399.491 222.815, 399.919 222.550 C 400.347 222.285, 403.954 222.990, 407.934 224.116 C 411.913 225.242, 415.368 225.966, 415.610 225.723 C 415.852 225.481, 409.852 218.807, 402.275 210.891 C 394.699 202.976, 390.436 198.208, 392.802 200.295 C 397.948 204.833, 401.846 206.556, 403.413 204.984 C 404.022 204.374, 404.543 199.848, 404.598 194.697 C 404.652 189.639, 405.271 182.944, 405.973 179.819 C 407.373 173.585, 406.758 167.874, 404.484 165.987 C 402.765 164.560, 397.463 165.335, 392.389 167.754 C 386.772 170.433, 386.533 169.026, 389.860 152.895 C 392.357 140.791, 393.664 130.287, 393.124 126.668 C 393.056 126.211, 391.484 126.774, 389.632 127.918 C 387.780 129.063, 385.867 129.986, 385.382 129.968 C 383.923 129.916, 388.175 127.020, 393.500 124.440 C 399.878 121.350, 405 116.804, 405 114.233 C 405 111.889, 402.097 109.784, 396.039 107.736 C 393.650 106.929, 392.250 106.083, 392.928 105.857 C 393.898 105.534, 393.912 103.326, 392.997 95.473 C 392.358 89.988, 391.479 77.175, 391.045 67 C 390.611 56.825, 389.938 47.747, 389.551 46.827 C 388.599 44.569, 386.778 43.999, 384.440 45.227 M 379.720 71.332 C 378.606 74.165, 378.788 75.612, 380.094 74.306 C 380.695 73.705, 381.020 72.377, 380.814 71.356 C 380.454 69.566, 380.415 69.565, 379.720 71.332 M 183.586 123.148 C 184.639 124.604, 186.968 127.600, 188.762 129.806 L 192.023 133.817 185.406 141.159 C 181.766 145.196, 176.797 150.412, 174.365 152.750 C 171.932 155.088, 170.348 157, 170.844 157 C 172.008 157, 192 136.266, 192 135.059 C 192 134.557, 192.693 134.001, 193.539 133.823 C 194.581 133.604, 192.912 131.399, 188.376 127 C 184.689 123.425, 182.534 121.691, 183.586 123.148 M 351.211 135.750 C 345.594 144.110, 345.221 144.821, 347.352 143.091 C 348.887 141.845, 349.281 141.961, 350.743 144.091 C 353.328 147.854, 364.278 159.078, 366.500 160.242 C 367.600 160.819, 364.337 156.970, 359.250 151.690 C 350.291 142.392, 349.064 140.459, 350.840 138.450 C 352.375 136.714, 356.172 130, 355.619 130 C 355.319 130, 353.336 132.588, 351.211 135.750 M 379 132 C 377.075 133.054, 376.052 133.935, 376.726 133.958 C 377.400 133.981, 379.425 133.102, 381.226 132.004 C 385.395 129.462, 383.641 129.459, 379 132 M 165.355 144.500 C 165.352 149.450, 165.521 151.601, 165.731 149.280 C 165.940 146.959, 165.943 142.909, 165.736 140.280 C 165.530 137.651, 165.358 139.550, 165.355 144.500 M 377.165 156 C 376.892 163.673, 376.121 164.619, 371.883 162.486 C 369.101 161.085, 368.767 161.057, 370 162.325 C 370.825 163.174, 372.718 164.167, 374.206 164.532 C 376.498 165.093, 377.006 164.825, 377.519 162.781 C 377.852 161.454, 377.953 158.147, 377.743 155.434 L 377.360 150.500 377.165 156 M 299.118 163.114 C 299.053 169.501, 298.548 177.111, 297.995 180.025 C 297.443 182.939, 297.189 185.522, 297.431 185.764 C 297.673 186.006, 298.160 184.471, 298.513 182.352 C 299.676 175.383, 300.174 175.339, 302.537 182 C 305.420 190.124, 305.613 189.187, 303 179.757 C 301.900 175.788, 300.947 169.156, 300.882 165.020 C 300.676 151.929, 299.248 150.385, 299.118 163.114 M 166.079 156.750 C 166.026 158.262, 166.574 158.995, 167.750 158.985 C 168.829 158.975, 169.078 158.688, 168.400 158.235 C 167.795 157.831, 167.043 156.825, 166.729 156 C 166.347 154.998, 166.132 155.247, 166.079 156.750 M 138.400 162.723 C 135.695 164.634, 134.566 168.922, 134.381 178 C 134.241 184.847, 133.586 189.145, 132.035 193.391 C 130.771 196.852, 130.252 199.652, 130.777 200.177 C 131.724 201.124, 138.672 198.336, 143 195.271 C 148.939 191.064, 131.900 210.452, 124.555 216.257 L 119.606 220.169 124.780 219.895 C 127.625 219.744, 130.220 219.887, 130.546 220.212 C 130.871 220.538, 131.453 222.986, 131.838 225.652 L 132.539 230.500 136.009 225.500 C 137.918 222.750, 141.185 217.350, 143.271 213.500 L 147.062 206.500 146.385 212.500 C 146.013 215.800, 145.175 221.088, 144.523 224.250 C 143.872 227.412, 143.651 230, 144.032 230 C 144.413 230, 146.434 228.641, 148.524 226.981 L 152.323 223.962 155.207 227.231 L 158.091 230.500 157.448 220.698 C 156.888 212.157, 156.496 210.587, 154.403 208.494 C 153.081 207.172, 152.039 205.058, 152.086 203.795 C 152.166 201.668, 152.231 201.695, 152.979 204.172 C 154.984 210.814, 156.707 209.876, 161.529 199.519 C 163.326 195.659, 166.867 190.028, 169.398 187.007 C 174.816 180.541, 175.220 177.543, 171.195 173.687 C 166.301 168.998, 158.084 170.566, 154.393 176.893 C 153.557 178.327, 153.131 178.662, 153.448 177.639 C 153.866 176.286, 153.622 175.931, 152.554 176.341 C 151.385 176.789, 151.265 176.432, 151.966 174.590 C 152.918 172.086, 150.999 168.019, 147.328 164.762 C 145.057 162.747, 140 161.592, 138.400 162.723 M 354.796 168.147 C 350.262 169.805, 350.032 175.130, 354.142 183.250 C 356.963 188.822, 357.102 187.791, 354.412 181.250 C 350.199 171.005, 351.406 168.796, 361.232 168.764 C 366.059 168.748, 366.810 168.570, 364.500 167.990 C 360.363 166.951, 357.959 166.990, 354.796 168.147 M 385 171 C 384.175 171.533, 382.375 172.038, 381 172.121 C 378.644 172.264, 378.629 172.297, 380.750 172.706 C 382.708 173.083, 383.023 173.812, 383.180 178.320 L 383.360 183.500 383.745 178.507 C 383.956 175.761, 384.845 172.724, 385.720 171.757 C 387.492 169.799, 387.251 169.545, 385 171 M 375.563 173.070 C 377.641 175.366, 378 175.447, 378 173.617 C 378 172.856, 377.059 171.987, 375.908 171.686 C 373.900 171.161, 373.887 171.217, 375.563 173.070 M 228.072 182.685 C 228 185.890, 230.258 197.911, 231.579 201.349 C 232.224 203.027, 232.085 203.073, 230.069 201.849 C 228.224 200.729, 224.040 193.294, 221.713 187 C 220.498 183.716, 221.071 189.676, 222.477 194.962 C 223.940 200.460, 223.507 201.941, 220.424 201.985 C 218.613 202.010, 215 206.503, 215 208.729 C 215 209.975, 216.889 212.493, 219.641 214.915 C 223.666 218.458, 224.906 219, 228.984 219 C 233.397 219, 233.946 219.308, 237.891 223.986 C 240.203 226.728, 243.986 230.080, 246.297 231.435 C 248.609 232.790, 252.196 236.171, 254.269 238.949 C 256.343 241.727, 258.679 244, 259.461 244 C 260.243 244, 262.821 241.513, 265.191 238.473 C 267.561 235.433, 271.142 231.857, 273.149 230.525 C 275.157 229.194, 278.757 225.831, 281.149 223.053 C 285.128 218.434, 285.870 218.001, 289.824 218 C 293.645 218, 294.751 217.423, 299.324 213.044 C 303.572 208.976, 304.311 207.782, 303.448 206.385 C 302.546 204.924, 297.508 201.669, 294.700 200.733 C 294.214 200.571, 294.567 197.856, 295.485 194.700 C 296.403 191.543, 296.992 188.476, 296.795 187.884 C 296.597 187.292, 295.645 189.439, 294.677 192.654 C 292.995 198.246, 292.677 198.613, 287.363 201.106 L 281.808 203.712 282.431 200.606 C 282.773 198.898, 283.245 193.450, 283.480 188.500 C 283.947 178.627, 284.055 178.233, 280.474 199.500 C 279.640 204.450, 278.701 209.672, 278.387 211.105 C 277.946 213.116, 278.406 214.174, 280.408 215.749 C 281.834 216.870, 283 218.190, 283 218.682 C 283 219.173, 280.750 221.791, 278 224.500 C 272.490 229.927, 272.020 229.842, 275.020 223.960 C 277.711 218.686, 275.994 218.891, 272.593 224.250 C 270.238 227.960, 261.484 235, 259.225 235 C 257.831 235, 250.837 224.920, 246.257 216.311 C 241.747 207.833, 240.304 206.089, 241.395 210.439 C 241.732 211.780, 241.633 213.109, 241.175 213.392 C 239.541 214.402, 232.613 198.870, 230.380 189.193 C 229.080 183.554, 228.114 180.832, 228.072 182.685 M 149.150 185.421 C 149.067 188.128, 148.413 191.053, 147.696 191.921 C 146.840 192.958, 146.623 194.702, 147.064 197 L 147.737 200.500 147.868 197.332 C 148.037 193.261, 148.968 190.862, 150.105 191.565 C 150.597 191.869, 151.006 191.079, 151.014 189.809 C 151.021 188.539, 151.255 186.375, 151.534 185 C 151.966 182.868, 151.908 182.795, 151.139 184.500 C 150.327 186.299, 150.190 186.199, 149.768 183.500 C 149.431 181.344, 149.258 181.884, 149.150 185.421 M 378.406 189.181 C 377.552 190.834, 377.070 192.403, 377.335 192.668 C 377.600 192.934, 378.114 192.217, 378.476 191.075 C 379.255 188.622, 380.770 188.450, 383.677 190.486 C 385.720 191.918, 385.756 191.882, 384.650 189.538 C 382.887 185.802, 380.232 185.650, 378.406 189.181 M 358.289 190.215 C 359.279 191.785, 360.006 194.947, 360.015 197.715 C 360.042 206.635, 363.724 210.058, 369.054 206.118 C 371.035 204.654, 371.987 204.404, 372.287 205.271 C 372.521 205.947, 372.595 205.713, 372.450 204.750 C 372.306 203.787, 372.595 203, 373.094 203 C 373.592 203, 374 202.127, 374 201.059 C 374 199.991, 374.450 198.840, 375 198.500 C 375.550 198.160, 376 197.391, 376 196.791 C 376 196.191, 374.659 197.551, 373.020 199.814 C 371.381 202.077, 368.904 204.672, 367.515 205.582 C 363.750 208.049, 362.235 206.152, 361.428 197.963 C 360.917 192.783, 360.234 190.641, 358.664 189.292 L 356.578 187.500 358.289 190.215 M 287.180 202.700 C 283.835 204.330, 279 209.721, 279 211.821 C 279 212.444, 280.180 213.727, 281.621 214.671 C 284.126 216.313, 284.308 216.303, 285.721 214.444 C 287.873 211.613, 291.127 203.860, 290.790 202.366 C 290.564 201.368, 289.761 201.442, 287.180 202.700 M 218.766 204.945 C 215.609 207.793, 215.551 207.983, 217.026 210.673 C 219.040 214.346, 224.587 218, 228.148 218 C 229.717 218, 231 217.740, 231 217.422 C 231 215.892, 223.745 202, 222.946 202 C 222.443 202, 220.562 203.325, 218.766 204.945 M 291.919 205.750 C 291.239 207.813, 289.854 210.976, 288.841 212.780 C 286.478 216.991, 286.480 217, 289.850 217 C 292.940 217, 300.268 212.237, 301.916 209.157 C 303.009 207.114, 301.694 205.391, 297.316 203.128 C 293.937 201.383, 293.248 201.717, 291.919 205.750 M 370.228 210.718 C 368.205 216.127, 367.861 217.522, 368.804 216.500 C 369.922 215.289, 372.158 208.825, 371.639 208.306 C 371.436 208.102, 370.801 209.188, 370.228 210.718 M 365.063 223.563 C 363.800 226.608, 363.001 229.334, 363.286 229.619 C 363.571 229.905, 364.764 227.573, 365.938 224.438 C 368.706 217.039, 368.041 216.375, 365.063 223.563 M 297.885 225.784 C 298.537 227.003, 299.505 228, 300.035 228 C 302.282 228, 300.698 230.092, 296.662 232.458 C 292.332 234.995, 287 235.864, 287 234.032 C 287 233.500, 288.238 232.393, 289.750 231.572 C 291.262 230.751, 292.074 230.062, 291.554 230.040 C 290.347 229.989, 283 235.053, 283 235.935 C 283 236.300, 284.575 236.415, 286.500 236.190 C 290.212 235.756, 291.008 236.918, 288.453 239.039 C 287.265 240.025, 287.193 240.501, 288.146 241.090 C 289.122 241.694, 289.130 242.457, 288.181 244.678 C 287.030 247.373, 287.123 247.340, 290.238 243.944 C 292.032 241.989, 294.342 239.751, 295.371 238.972 C 297.044 237.704, 297.018 237.921, 295.124 241.027 C 292.182 245.854, 292.239 253.582, 295.250 258.025 C 296.488 259.851, 298.147 261.559, 298.937 261.819 C 299.864 262.124, 299.598 261.305, 298.187 259.511 C 295.455 256.038, 295.431 253.657, 298.082 249.368 C 300.640 245.228, 302 245.072, 302 248.918 C 302 252.832, 302.922 255, 304.588 255 C 306.305 255, 307.422 250.817, 306.589 247.500 C 306.178 245.861, 306.380 245, 307.176 245 C 308.834 245, 314 250.063, 314 251.687 C 314 252.409, 314.675 253, 315.500 253 C 316.589 253, 317 251.878, 317 248.901 C 317 243.833, 314.630 238.624, 311.705 237.265 C 310.492 236.701, 308.375 235.727, 307 235.101 C 304.870 234.130, 305.269 234.042, 309.692 234.507 C 316.006 235.171, 320.723 237.055, 324.922 240.587 C 326.661 242.051, 328.309 243.024, 328.584 242.749 C 328.859 242.474, 327.715 241.097, 326.042 239.689 C 322.514 236.720, 322.381 236.308, 324.750 235.689 C 325.946 235.377, 325.714 235.195, 324.019 235.116 C 322.655 235.052, 319.280 234.137, 316.519 233.082 C 313.759 232.027, 309.608 230.665, 307.295 230.055 C 304.982 229.446, 301.652 227.737, 299.895 226.258 C 296.993 223.816, 296.808 223.773, 297.885 225.784 M 374.624 226.184 C 374.378 227.458, 373.443 233.022, 372.547 238.548 C 371.651 244.075, 370.659 249.587, 370.343 250.798 C 369.889 252.534, 370.197 253, 371.800 253 C 372.918 253, 374.034 253.563, 374.280 254.250 C 374.525 254.938, 374.994 255.256, 375.322 254.958 C 376.307 254.061, 378.018 241.036, 378.267 232.534 C 378.467 225.699, 378.256 224.517, 376.786 224.217 C 375.643 223.984, 374.922 224.639, 374.624 226.184 M 399.739 228.750 C 399.428 231.179, 399.956 234.163, 401.239 237.219 C 403.223 241.947, 406 245.390, 406 243.122 C 406 242.505, 406.900 242, 408 242 C 409.100 242, 410 241.830, 410 241.621 C 410 241.413, 408.407 238.600, 406.460 235.371 C 404.513 232.142, 402.664 228.488, 402.352 227.250 C 401.493 223.850, 400.277 224.547, 399.739 228.750 M 129.175 227.519 C 129.079 228.079, 125.880 232.691, 122.068 237.769 C 116.995 244.523, 115.600 247, 116.868 247 C 117.820 247, 119.078 247.478, 119.662 248.062 C 120.411 248.811, 121.756 247.687, 124.229 244.245 C 129.489 236.923, 130.146 235.307, 129.730 230.712 C 129.521 228.395, 129.271 226.958, 129.175 227.519 M 148.549 228.945 C 147.099 230.549, 141 251.839, 141 255.300 C 141 255.856, 141.787 255.634, 142.750 254.807 C 143.713 253.980, 145.287 253.025, 146.250 252.683 C 147.213 252.342, 148.021 251.261, 148.047 250.281 C 148.073 249.302, 148.892 243.662, 149.867 237.750 C 150.842 231.838, 151.341 227, 150.975 227 C 150.609 227, 149.518 227.875, 148.549 228.945 M 228 228.894 C 229.375 230.028, 230.838 230.966, 231.250 230.978 C 231.662 230.990, 232 231.675, 232 232.500 C 232 233.325, 232.745 234, 233.655 234 C 235.169 234, 235.175 233.851, 233.722 232.250 C 232.849 231.287, 230.641 229.675, 228.817 228.667 L 225.500 226.833 228 228.894 M 364.832 232.800 C 362.810 234.027, 362 235.517, 361.485 238.959 C 358.961 255.835, 347.875 278.024, 337.354 287.263 C 333.849 290.340, 330.661 296.318, 326.829 307 C 324.431 313.685, 323.276 330.177, 324.914 334.358 L 326.033 337.217 329.266 330.858 C 331.533 326.402, 335.609 321.359, 342.894 314 C 354.832 301.939, 360.704 294.883, 362.657 290.250 C 364.301 286.349, 366.434 285.727, 364.971 289.576 C 364.433 290.992, 362.615 294.255, 360.932 296.826 L 357.872 301.500 362.487 296.500 C 368.020 290.504, 375.380 276.303, 377.001 268.497 C 378.120 263.103, 378.055 262.682, 375.508 258.832 C 372.590 254.424, 372.674 254.429, 364.272 258.096 C 361.397 259.351, 358.804 260.137, 358.509 259.843 C 358.215 259.548, 359.491 255.976, 361.345 251.904 C 363.200 247.832, 365.482 242.025, 366.418 239 C 367.354 235.975, 368.355 232.938, 368.643 232.250 C 369.324 230.625, 368.138 230.796, 364.832 232.800 M 156.656 244.267 C 156.300 250.445, 156.007 258.511, 156.005 262.191 C 156.002 265.871, 155.584 269.139, 155.075 269.453 C 154.567 269.768, 152.227 266.644, 149.876 262.512 C 147.525 258.381, 145.297 255, 144.923 255 C 144.550 255, 143.654 255.711, 142.933 256.581 C 141.880 257.850, 141.848 259.478, 142.771 264.831 C 145.239 279.144, 152.151 290.875, 164.672 302 C 173.485 309.831, 178.738 316.569, 179.695 321.271 C 180.720 326.309, 182 325.213, 181.985 319.309 C 181.967 312.527, 181.984 312.561, 175.587 307.053 C 170.360 302.553, 162.782 293.884, 163.472 293.194 C 163.700 292.967, 167.469 296.318, 171.848 300.640 C 176.525 305.258, 182.427 309.900, 186.155 311.894 C 189.645 313.761, 191.938 314.683, 191.250 313.944 C 190.563 313.205, 190 312.240, 190 311.800 C 190 307.932, 198.195 318.470, 201.488 326.571 C 202.697 329.546, 203.982 331.685, 204.343 331.324 C 205.406 330.261, 205.096 317.547, 203.867 311.799 C 202.089 303.478, 198.571 296.922, 192.973 291.500 C 187.475 286.173, 178.631 275.558, 173.186 267.748 C 169.080 261.859, 164.884 252.685, 162.096 243.500 C 158.368 231.222, 157.400 231.359, 156.656 244.267 M 390.804 237.643 L 390.490 242.500 388.560 238.750 C 387.498 236.688, 386.236 235, 385.756 235 C 385.275 235, 385.087 235.338, 385.337 235.750 C 386.067 236.951, 386.566 271.766, 385.864 272.468 C 385.514 272.819, 384.240 271.507, 383.033 269.553 C 381.825 267.599, 380.501 266, 380.090 266 C 379.680 266, 378.842 268.173, 378.229 270.828 C 375.438 282.918, 364.910 299.388, 356.181 305.319 C 347.196 311.425, 335.617 323.533, 332.202 330.394 C 328.524 337.786, 327.999 340.856, 331.160 336.486 C 334.705 331.586, 347.156 321.117, 354.514 316.848 C 364.167 311.248, 369.033 307.164, 370.642 303.314 C 371.404 301.491, 372.519 300, 373.120 300 C 373.769 300, 373.921 300.712, 373.495 301.750 C 372.518 304.127, 370.026 313.261, 370.016 314.500 C 370.011 315.050, 370.833 314.150, 371.842 312.500 C 372.851 310.850, 375.920 307.025, 378.661 304 C 394.590 286.423, 399.962 275.578, 399.988 260.942 C 399.998 255.608, 399.234 252.436, 395.894 243.942 C 393.636 238.199, 391.637 233.339, 391.453 233.143 C 391.269 232.946, 390.977 234.971, 390.804 237.643 M 214.362 238.500 C 213.542 240.636, 214.665 243, 216.500 243 C 218.620 243, 219.506 240.315, 217.989 238.487 C 216.415 236.590, 215.093 236.594, 214.362 238.500 M 298 239.941 C 298 243.236, 299.052 244.301, 301.410 243.396 C 303.613 242.551, 303.403 239.286, 301.066 238.035 C 298.256 236.531, 298 236.690, 298 239.941 M 201.037 256.500 C 201.022 257.050, 202.156 258.850, 203.558 260.500 C 204.959 262.150, 205.665 262.600, 205.126 261.500 C 203.676 258.540, 201.068 255.350, 201.037 256.500 M 223.703 260.593 C 222.715 261.917, 222.323 263, 222.831 263 C 224.127 263, 226.259 260.260, 225.845 259.126 C 225.655 258.609, 224.691 259.268, 223.703 260.593 M 253.141 316.350 C 251.167 318.451, 251.099 318.837, 252.491 319.992 C 253.347 320.703, 254.337 320.996, 254.691 320.643 C 255.044 320.289, 254.808 320, 254.167 320 C 252.204 320, 252.868 317.206, 255.223 315.557 C 256.445 314.701, 256.973 314, 256.397 314 C 255.820 314, 254.355 315.057, 253.141 316.350 M 289.620 340.528 C 273.458 348.540, 264.368 352, 259.483 352 C 257.763 352, 252.225 349.990, 247.177 347.533 C 242.130 345.077, 238.003 343.389, 238.006 343.783 C 238.011 344.543, 239.796 351.567, 240.566 353.863 C 240.952 355.013, 241.285 355.013, 242.699 353.863 C 244.166 352.670, 244.291 352.723, 243.702 354.292 C 243.166 355.723, 243.984 356.499, 247.765 358.143 C 257.195 362.245, 287.182 361.467, 286.245 357.145 C 286.088 356.423, 287.079 356.050, 288.806 356.182 C 290.355 356.300, 293.282 355.371, 295.311 354.117 C 298.770 351.979, 299.468 350.661, 299.077 347 C 298.938 345.701, 299.048 345.695, 299.892 346.952 C 300.429 347.751, 300.586 348.876, 300.242 349.452 C 299.898 350.029, 300.377 349.882, 301.308 349.128 C 302.323 348.304, 303.010 346.304, 303.024 344.128 C 303.037 342.132, 303.440 338.813, 303.919 336.750 C 304.398 334.688, 304.724 333.034, 304.645 333.076 C 304.565 333.118, 297.804 336.472, 289.620 340.528 M 294.500 352 C 293.505 353.100, 293.110 354, 293.623 354 C 294.136 354, 295.326 353.100, 296.268 352 C 297.210 350.900, 297.605 350, 297.145 350 C 296.686 350, 295.495 350.900, 294.500 352 M 301.488 370.019 C 300.334 371.887, 291.273 375.917, 283.610 377.971 C 279.153 379.165, 272.919 380, 268.459 380 C 263.662 380, 261.109 380.367, 261.500 381 C 261.840 381.550, 261.641 382, 261.059 382 C 260.477 382, 260 381.550, 260 381 C 260 380.450, 259.550 380, 259 380 C 258.450 380, 258.053 380.337, 258.118 380.750 C 258.184 381.163, 258.184 382.362, 258.118 383.417 C 257.963 385.933, 256.711 384.639, 256.506 381.750 C 256.382 380.017, 255.673 379.455, 253.423 379.304 C 250.630 379.116, 250.611 379.142, 253 379.877 C 255.398 380.614, 255.360 380.667, 252.079 381.175 C 248.127 381.786, 244.135 380.096, 244.802 378.094 C 245.078 377.265, 244.812 376.998, 244.130 377.420 C 243.508 377.804, 243 377.690, 243 377.166 C 243 376.642, 242.325 375.955, 241.500 375.638 C 240.586 375.288, 240 375.637, 240 376.531 C 240 377.339, 240.506 377.888, 241.125 377.750 C 241.744 377.613, 242.471 378.106, 242.741 378.847 C 243.134 379.926, 242.807 379.967, 241.095 379.051 C 239.920 378.422, 238.612 378.122, 238.188 378.384 C 237.765 378.645, 237.605 377.255, 237.834 375.293 C 238.131 372.754, 237.915 371.935, 237.085 372.448 C 236.443 372.844, 236.180 373.993, 236.500 375 C 236.820 376.007, 236.613 377.121, 236.041 377.475 C 234.629 378.348, 232.811 377.114, 233.609 375.824 C 234.022 375.155, 234.555 375.268, 235.110 376.143 C 235.685 377.051, 235.974 377.106, 235.985 376.309 C 235.993 375.654, 235.662 374.913, 235.250 374.663 C 234.156 374, 208.199 386.341, 204.527 389.271 C 201.990 391.296, 195 402.316, 195 404.292 C 195 404.573, 196.463 405.740, 198.250 406.885 C 200.366 408.240, 200.910 408.972, 199.809 408.983 C 198.879 408.992, 197.840 408.550, 197.500 408 C 196.575 406.503, 195.294 406.792, 194.577 408.659 C 192.957 412.881, 189 461.571, 189 477.282 C 189 482.201, 190.387 481.989, 192.482 476.750 C 197.035 465.362, 199.150 461.880, 201.327 462.193 C 202.519 462.365, 206.051 465.626, 209.358 469.607 L 215.260 476.714 219.607 474.284 C 225.264 471.122, 227.905 471.593, 230.949 476.306 L 233.407 480.112 235.073 477.904 C 236.456 476.070, 237.374 475.799, 240.495 476.305 C 243.331 476.766, 245.182 476.380, 248.050 474.729 C 251.437 472.780, 252.225 472.679, 255.328 473.802 C 258.274 474.867, 259.445 474.806, 262.953 473.402 C 266.998 471.784, 267.156 471.798, 269.493 473.994 C 271.423 475.807, 272.570 476.116, 275.397 475.585 C 278.453 475.012, 279.130 475.268, 280.638 477.571 C 282.249 480.029, 282.460 480.091, 283.657 478.454 C 285.369 476.114, 290.178 476.329, 294.393 478.934 C 296.232 480.070, 298.163 481, 298.684 481 C 299.205 481, 300.680 479.134, 301.962 476.854 C 304.704 471.976, 311.414 465, 313.365 465 C 315.817 465, 319.823 468.947, 322.991 474.484 C 325.876 479.527, 326.277 479.845, 328.614 478.957 C 329.998 478.431, 333.186 478, 335.698 478 L 340.266 478 339.533 444.750 C 339.130 426.462, 338.701 411.393, 338.579 411.263 C 338.458 411.133, 333.667 411.920, 327.932 413.013 C 322.196 414.106, 316.603 414.965, 315.502 414.922 C 314.401 414.879, 318.864 413.768, 325.420 412.452 C 331.976 411.137, 337.708 409.692, 338.158 409.242 C 338.609 408.791, 338.694 403.463, 338.347 397.402 L 337.716 386.382 327.710 381.441 C 322.206 378.723, 315.275 374.813, 312.307 372.750 C 306.208 368.512, 305.334 368.282, 304.689 370.750 C 304.254 372.417, 304.226 372.417, 304.116 370.750 C 303.989 368.830, 302.482 368.411, 301.488 370.019 M 263.380 382.452 C 262.668 384.308, 263.707 386, 265.559 386 C 266.429 386, 267 385.010, 267 383.500 C 267 380.752, 264.329 379.979, 263.380 382.452 M 344.636 387.780 C 344.343 388.254, 344.420 392.435, 344.806 397.071 C 345.475 405.101, 345.617 405.488, 347.812 405.251 C 349.141 405.108, 349.855 405.426, 349.499 406.001 C 349.160 406.551, 348.234 407, 347.441 407 C 345.747 407, 345.570 421.723, 346.685 470 C 347.279 495.763, 347.505 498.740, 348.469 493.500 C 349.557 487.587, 354.835 474.973, 357.459 472.016 C 359.898 469.268, 369.712 450.497, 372.020 444.165 C 373.266 440.748, 374.458 438.125, 374.669 438.336 C 375.502 439.168, 366.531 463.064, 361.879 472.407 C 357.592 481.015, 353 494.617, 353 498.705 C 353 499.782, 358.045 499.982, 379.750 499.766 L 406.500 499.500 407.104 494 C 407.437 490.975, 408.268 484, 408.951 478.500 C 409.634 473, 410.232 460.175, 410.280 450 C 410.360 432.982, 410.155 430.713, 407.722 421.673 C 403.205 404.894, 399.198 398.220, 391.430 394.534 C 387.372 392.608, 381.737 391.630, 362.500 389.512 C 354.800 388.664, 347.750 387.734, 346.834 387.445 C 345.918 387.155, 344.929 387.306, 344.636 387.780 M 259.444 390.294 C 256.766 392.598, 256.528 393.361, 256.396 400.069 C 256.267 406.635, 255.876 407.962, 252.377 413.689 C 249.363 418.621, 248.055 419.947, 246.500 419.646 C 230.178 416.483, 213.264 412.639, 208.577 411.027 C 202.142 408.813, 200.588 408.529, 203.182 410.042 C 206.209 411.808, 217.510 414.953, 230.121 417.540 C 245.565 420.707, 246 420.842, 246 422.464 C 246 423.970, 237.428 435.386, 229.235 444.794 C 226.221 448.255, 224.005 451.339, 224.312 451.646 C 225.115 452.449, 233.773 449.393, 238.733 446.556 C 241.115 445.194, 243.222 444.551, 243.553 445.086 C 243.876 445.608, 244.683 450.358, 245.346 455.640 C 246.264 462.950, 246.817 464.916, 247.659 463.872 C 251.726 458.831, 260.849 434.908, 262.483 425 C 263.511 418.766, 264.930 416.485, 264.971 421 C 265.053 430.008, 270.072 450.269, 274.261 458.500 C 276.602 463.099, 276.675 463.008, 279.454 451.980 C 281.832 442.545, 281.704 442.659, 288.540 443.923 C 295.332 445.178, 305 445.350, 305 444.216 C 305 443.784, 303.626 442.620, 301.947 441.628 C 297.865 439.217, 285 426.151, 285 424.416 C 285 422.084, 292.396 419.111, 303.189 417.105 C 308.860 416.051, 312.302 415.146, 310.838 415.094 C 305.911 414.920, 292.540 417.976, 287.650 420.395 L 282.799 422.794 277.900 415.147 C 273.135 407.710, 273 407.291, 273 399.905 C 273 391.283, 271.780 389.325, 265.799 388.355 C 263.061 387.911, 261.750 388.311, 259.444 390.294 M 258.989 393.250 C 256.810 396.824, 256.435 401.076, 258.035 404.066 C 259.452 406.713, 265.326 406.674, 268 404 C 270.572 401.428, 271.364 401.451, 269.970 404.056 C 269.365 405.187, 267.886 406.509, 266.685 406.993 C 265.080 407.639, 264.945 407.890, 266.177 407.937 C 269.145 408.049, 272 403.186, 272 398.020 C 272 392.284, 269.909 390, 264.657 390 C 261.571 390, 260.648 390.530, 258.989 393.250 M 177.500 392.615 C 170.350 393.351, 161.575 394.232, 158 394.574 C 151.962 395.153, 151.199 395.510, 147.267 399.598 C 142.848 404.193, 135.954 417.493, 132.028 429 C 128.569 439.136, 127.495 452.443, 128.870 468.130 C 130.002 481.042, 131.491 493.081, 132.535 497.750 L 133.038 500 156.627 500 L 180.217 500 179.683 497.750 C 179.389 496.512, 178.850 492.800, 178.485 489.500 C 177.625 481.722, 175.078 473.030, 172.918 470.500 C 170.086 467.184, 161.101 450.886, 158.983 445.224 C 156.257 437.940, 156.521 436.221, 159.320 443.024 C 161.817 449.091, 165.162 454.238, 172.819 463.790 C 175.592 467.250, 178.904 472.200, 180.180 474.790 L 182.500 479.500 183.143 469.500 C 186.293 420.547, 188.372 404.453, 192.445 397.504 C 193.850 395.106, 195 392.661, 195 392.072 C 195 390.833, 194.756 390.841, 177.500 392.615 M 251.750 423.750 C 247.819 431.863, 244.292 439.193, 243.911 440.040 C 243.531 440.887, 243.799 442.372, 244.507 443.341 C 245.665 444.925, 246.103 444.532, 248.865 439.433 C 252.481 432.757, 261 412.357, 261 410.375 C 261 406.401, 258.179 410.480, 251.750 423.750 M 266.777 409.557 C 266.470 409.863, 267.043 412.225, 268.049 414.807 C 269.055 417.388, 271.261 423.100, 272.952 427.500 C 277.171 438.476, 279.122 441.226, 282.899 441.524 L 285.973 441.765 283.438 437.633 C 279.771 431.656, 273.581 419.260, 271.512 413.750 C 269.897 409.450, 268.299 408.034, 266.777 409.557 M 197.653 468.750 C 196.344 471.363, 194.739 475.152, 194.085 477.170 C 192.426 482.299, 191.015 483.250, 187.097 481.884 C 185.337 481.271, 183.704 480.963, 183.466 481.201 C 183.229 481.438, 183.518 483.178, 184.109 485.066 C 184.700 486.955, 185.494 491.200, 185.873 494.500 L 186.563 500.500 188.722 496.500 C 189.909 494.300, 192.939 489.913, 195.455 486.750 C 200.681 480.180, 202.721 479.665, 210.429 482.970 C 215.260 485.040, 228.159 494.192, 231.405 497.852 C 233.099 499.762, 234.352 500, 242.722 500 C 252.946 500, 252.293 500.470, 250.550 494.369 C 249.780 491.675, 245.776 490.814, 240.026 492.105 C 235.089 493.215, 234.441 492.717, 233.380 487 C 232.558 482.576, 229.789 477.021, 227.269 474.743 C 225.408 473.059, 225.128 473.090, 220.610 475.493 C 214.665 478.653, 213.806 478.630, 211.793 475.250 C 209.056 470.655, 202.931 464, 201.439 464 C 200.666 464, 198.963 466.137, 197.653 468.750 M 309.870 468.887 C 308.551 469.926, 305.731 473.751, 303.604 477.387 C 301.477 481.024, 299.577 484, 299.383 484 C 299.189 484, 296.836 482.650, 294.154 481 C 291.473 479.350, 288.534 478, 287.625 478 C 285.376 478, 282.376 483.132, 279.880 491.250 C 277.591 498.697, 276.951 499.050, 271.261 496 C 269.209 494.900, 266.751 494, 265.800 494 C 264.125 494, 262 496.759, 262 498.934 C 262 500.609, 280.959 500.333, 282.921 498.630 C 286.334 495.668, 301.033 486.017, 305.846 483.578 C 314.050 479.421, 316.775 479.948, 323.821 487.060 C 327.123 490.393, 330.876 494.680, 332.162 496.587 C 334.076 499.426, 335.044 500.004, 337.500 499.777 L 340.500 499.500 340.500 490.530 C 340.500 482.177, 340.342 481.480, 338.208 480.416 C 336.167 479.399, 332.655 479.620, 326.068 481.181 C 325.298 481.364, 323.392 479.097, 321.612 475.880 C 316.298 466.283, 314.524 465.227, 309.870 468.887 M 303.467 487.053 C 303.109 487.633, 303.127 490.783, 303.506 494.053 C 304.079 498.989, 304.520 500, 306.098 500 C 307.640 500, 308 499.267, 308 496.125 C 308 490.301, 306.910 486, 305.434 486 C 304.710 486, 303.825 486.474, 303.467 487.053 M 215 494 C 215 499.227, 215.245 500, 216.899 500 C 219.507 500, 220.329 491.607, 217.933 489.440 C 215.362 487.113, 215 487.677, 215 494 M 194.109 491.847 C 191.409 495.639, 191.276 500, 193.861 500 C 195.357 500, 195.842 498.984, 196.336 494.809 C 196.674 491.954, 196.786 489.453, 196.585 489.251 C 196.383 489.050, 195.269 490.218, 194.109 491.847" stroke="none" fill="#e1cab4" fill-rule="evenodd"/></svg>